<svg xmlns="http://www.w3.org/2000/svg" id="ba479159-805d-410d-a63e-a88d6d54c37e" data-name="b047a384-0905-4acf-8f37-2d0cf18d1c16" viewBox="0 0 41.8084 41.8084"><rect width="41.8084" height="41.8084" style="fill:none"></rect><path d="M17.0263,4.87V7.2233a16.33,16.33,0,0,0-7.8457,5.6881,14.3494,14.3494,0,0,0-2.844,8.14,3.4623,3.4623,0,0,0,.2942,1.373.5256.5256,0,0,0,.3923.2942,1.4644,1.4644,0,0,0,.6865-.2942,6.7511,6.7511,0,0,1,8.7283,1.0788,7.09,7.09,0,0,1,2.06,5.2958,7.7883,7.7883,0,0,1-2.4518,5.6881,8.2308,8.2308,0,0,1-5.8843,2.4517,8.972,8.972,0,0,1-6.963-3.3344A12.7959,12.7959,0,0,1,.2562,24.778,18.2506,18.2506,0,0,1,4.2771,13.2056C7.2192,9.6751,11.3382,6.9291,17.0263,4.87Zm23.0466,0V7.2233a16.3292,16.3292,0,0,0-7.8457,5.6881,14.3494,14.3494,0,0,0-2.844,8.14,3.4623,3.4623,0,0,0,.2942,1.373.5256.5256,0,0,0,.3923.2942,1.4644,1.4644,0,0,0,.6865-.2942,6.7511,6.7511,0,0,1,8.7283,1.0788,7.09,7.09,0,0,1,2.0594,5.2958,7.7882,7.7882,0,0,1-2.4517,5.6881,8.2309,8.2309,0,0,1-5.8843,2.4517,8.972,8.972,0,0,1-6.963-3.3344,12.7959,12.7959,0,0,1-2.9421-8.8263,18.2506,18.2506,0,0,1,4.0209-11.5724C30.1678,9.6751,34.3848,6.9291,40.0729,4.87Z" transform="translate(0)" style="fill:#e6e9ec"></path></svg>