<svg xmlns="http://www.w3.org/2000/svg" id="f14eba92-dc5a-4f63-804d-770f476716ca" data-name="Layer 1" viewBox="0 0 320.8971 21"><g id="b12964b9-3c1e-4012-9bb1-ae21afe55844" data-name="Symbols"><g id="a3adb492-62a4-44c2-9a77-9f2e91e0decd" data-name="Header"><g id="acd1026c-f053-49ec-b588-418dd0ea3607" data-name="Group-7"><polygon id="f8e426c7-9199-453e-ac69-a23552c1e5c3" data-name="Fill-37" points="136.897 14 140.897 14 140.897 10 136.897 10 136.897 14" style="fill:#9aa8ba;fill-rule:evenodd"></polygon><path id="a61971e0-ca36-46a0-95ac-b8111ff3639f" data-name="Fill-1" d="M155.2054,18.4283a4.14,4.14,0,0,1-1.6176-1.6067A4.6371,4.6371,0,0,1,153,14.492a4.5885,4.5885,0,0,1,.5878-2.3215,4.1429,4.1429,0,0,1,1.6176-1.5978A4.7366,4.7366,0,0,1,157.5447,10a4.5173,4.5173,0,0,1,2.0379.4464A3.3947,3.3947,0,0,1,161,11.75l-.8891.6055a2.79,2.79,0,0,0-1.1072-.9843,3.2881,3.2881,0,0,0-1.459-.3281,3.4409,3.4409,0,0,0-1.7188.43,3.002,3.002,0,0,0-1.19,1.2189,3.7223,3.7223,0,0,0-.4272,1.8006,3.7007,3.7007,0,0,0,.4272,1.8076,3.0124,3.0124,0,0,0,1.19,1.211,3.4409,3.4409,0,0,0,1.7188.43,3.3529,3.3529,0,0,0,1.459-.3191,2.7263,2.7263,0,0,0,1.1072-.9764L161,17.25a3.3728,3.3728,0,0,1-1.4263,1.3045,4.5294,4.5294,0,0,1-2.029.4454,4.7468,4.7468,0,0,1-2.3393-.5717" transform="translate(-0.1029 -1)" style="fill:#9aa8ba;fill-rule:evenodd"></path><polygon id="ea6a084e-7c8d-4725-b5b3-7a9aeecb0e9e" data-name="Fill-4" points="162.897 18 163.897 18 163.897 5 162.897 5 162.897 18" style="fill:#9aa8ba;fill-rule:evenodd"></polygon><path id="a8d8918f-17d9-4ca5-80f0-d867ed85c969" data-name="Fill-6" d="M167.307,19h1.3655V9.7841H167.307Zm-.0182-11.4932A.82.82,0,0,1,167,6.8761a.8024.8024,0,0,1,.2888-.6131A1.0172,1.0172,0,0,1,168.0006,6a1.0429,1.0429,0,0,1,.7117.2537A.7822.7822,0,0,1,169,6.8585a.8419.8419,0,0,1-.2877.6483,1.0943,1.0943,0,0,1-1.4235,0Z" transform="translate(-0.1029 -1)" style="fill:#9aa8ba;fill-rule:evenodd"></path><path id="a02d8239-8b50-407c-85a4-5c224c0d1eb0" data-name="Fill-7" d="M179.0329,10.9766A3.8761,3.8761,0,0,1,180,13.821V19h-1.1733V13.9394a3.0093,3.0093,0,0,0-.678-2.1217,2.51,2.51,0,0,0-1.9343-.7307,2.924,2.924,0,0,0-2.2225.8581,3.2863,3.2863,0,0,0-.8186,2.3677V19H172V10.0683h1.1235v1.647a3.2874,3.2874,0,0,1,1.3305-1.2646A4.1652,4.1652,0,0,1,176.4294,10a3.5013,3.5013,0,0,1,2.6035.9766" transform="translate(-0.1029 -1)" style="fill:#9aa8ba;fill-rule:evenodd"></path><path id="a9ffff55-a464-48c2-9209-2fe2cb5cbddc" data-name="Fill-8" d="M183.307,19h1.3655V9.7841H183.307Zm-.0182-11.4932A.82.82,0,0,1,183,6.8761a.8024.8024,0,0,1,.2888-.6131A1.0172,1.0172,0,0,1,184.0006,6a1.0429,1.0429,0,0,1,.7117.2537A.7822.7822,0,0,1,185,6.8585a.8419.8419,0,0,1-.2877.6483,1.0943,1.0943,0,0,1-1.4235,0Z" transform="translate(-0.1029 -1)" style="fill:#9aa8ba;fill-rule:evenodd"></path><path id="a9dc96b0-8773-4b84-9918-5040cfb08af0" data-name="Fill-9" d="M189.5449,18.4283a4.14,4.14,0,0,1-1.6177-1.6067,4.637,4.637,0,0,1-.5877-2.33,4.5884,4.5884,0,0,1,.5877-2.3215,4.1439,4.1439,0,0,1,1.6177-1.5978A4.7365,4.7365,0,0,1,191.8841,10a4.517,4.517,0,0,1,2.0379.4464A3.3955,3.3955,0,0,1,195.34,11.75l-.8892.6055a2.79,2.79,0,0,0-1.1071-.9843,3.2885,3.2885,0,0,0-1.4591-.3281,3.4408,3.4408,0,0,0-1.7187.43,3.0023,3.0023,0,0,0-1.1905,1.2189,3.7234,3.7234,0,0,0-.4272,1.8006,3.7018,3.7018,0,0,0,.4272,1.8076,3.0126,3.0126,0,0,0,1.1905,1.211,3.4408,3.4408,0,0,0,1.7187.43,3.3533,3.3533,0,0,0,1.4591-.3191,2.7261,2.7261,0,0,0,1.1071-.9764l.8892.6055a3.3736,3.3736,0,0,1-1.4264,1.3045,4.5288,4.5288,0,0,1-2.029.4454,4.7467,4.7467,0,0,1-2.3392-.5717" transform="translate(-0.1029 -1)" style="fill:#9aa8ba;fill-rule:evenodd"></path><path id="a2641271-2db9-4f48-939d-5422358e8f09" data-name="Fill-10" d="M201.8571,17.5951a2.7435,2.7435,0,0,0,1.0161-1.3373V14.8112h-2.6185q-2.1434,0-2.1439,1.5809a1.4784,1.4784,0,0,0,.5564,1.22,2.4285,2.4285,0,0,0,1.5556.4454,2.8355,2.8355,0,0,0,1.6343-.4623m1.27-6.7291A3.4674,3.4674,0,0,1,204,13.4322v5.4833h-1.0789v-1.38a2.64,2.64,0,0,1-1.1193,1.0767A3.7243,3.7243,0,0,1,200.0473,19a3.3,3.3,0,0,1-2.2217-.7069A2.3337,2.3337,0,0,1,197,16.4259a2.3222,2.3222,0,0,1,.77-1.8165,3.6089,3.6089,0,0,1,2.4525-.6891h2.65v-.5388a2.3424,2.3424,0,0,0-.6033-1.741,2.4007,2.4007,0,0,0-1.7619-.5975,4.2532,4.2532,0,0,0-1.5237.2774,3.7881,3.7881,0,0,0-1.2534.7655l-.5085-.8908a4.429,4.429,0,0,1,1.5236-.8839A5.6466,5.6466,0,0,1,200.62,10a3.4113,3.4113,0,0,1,2.5079.866" transform="translate(-0.1029 -1)" style="fill:#9aa8ba;fill-rule:evenodd"></path><polygon id="e3e0f8c5-e9ba-4a7c-ab2d-7fbd947ca9ab" data-name="Fill-11" points="207.897 18 208.897 18 208.897 5 207.897 5 207.897 18" style="fill:#9aa8ba;fill-rule:evenodd"></polygon><path id="e16a79ec-ec33-47f2-95b1-08bf5bed90aa" data-name="Fill-12" d="M223.1793,17.4a2.9971,2.9971,0,0,0,1.1908-1.202,3.6035,3.6035,0,0,0,.4312-1.7722,3.566,3.566,0,0,0-.4312-1.7654,3.08,3.08,0,0,0-1.1908-1.2021,3.54,3.54,0,0,0-3.3856,0,3.0979,3.0979,0,0,0-1.1817,1.2021,3.565,3.565,0,0,0-.4312,1.7654,3.6024,3.6024,0,0,0,.4312,1.7722,3.0135,3.0135,0,0,0,1.1817,1.202,3.5964,3.5964,0,0,0,3.3856,0m.6588-6.8449a4.0021,4.0021,0,0,1,1.587,1.5655A4.5743,4.5743,0,0,1,226,14.4262a4.5986,4.5986,0,0,1-.5749,2.32,4.01,4.01,0,0,1-1.579,1.5665,4.6127,4.6127,0,0,1-2.2707.5555,4.2663,4.2663,0,0,1-1.95-.4389,3.6651,3.6651,0,0,1-1.4263-1.2853V22H217V10.0666h1.1478V11.79a3.6661,3.6661,0,0,1,1.4273-1.3255,4.2388,4.2388,0,0,1,2-.4644,4.6224,4.6224,0,0,1,2.2627.5555" transform="translate(-0.1029 -1)" style="fill:#9aa8ba;fill-rule:evenodd"></path><path id="b9fbf16f-0f7c-48a7-b919-8f3ecd649a52" data-name="Fill-13" d="M228.487,18.6888A4.2425,4.2425,0,0,1,227,17.9072l.52-.9427a4.3022,4.3022,0,0,0,1.3478.715,5.1929,5.1929,0,0,0,1.69.2774,3.136,3.136,0,0,0,1.73-.3778,1.2166,1.2166,0,0,0,.56-1.068.98.98,0,0,0-.3082-.7667,2.0494,2.0494,0,0,0-.7794-.4206,11.2364,11.2364,0,0,0-1.2509-.2774,14.117,14.117,0,0,1-1.6732-.4117,2.4616,2.4616,0,0,1-1.08-.7149,2.0369,2.0369,0,0,1-.4464-1.3961,2.2125,2.2125,0,0,1,.8928-1.8167A3.906,3.906,0,0,1,230.6872,10a6.26,6.26,0,0,1,1.6569.2267,4.5092,4.5092,0,0,1,1.3641.5976l-.504.9586a4.2037,4.2037,0,0,0-2.517-.7567,2.845,2.845,0,0,0-1.6646.4027,1.2513,1.2513,0,0,0-.56,1.061,1.0645,1.0645,0,0,0,.3158.8074,1.9333,1.9333,0,0,0,.7881.4455,12.1293,12.1293,0,0,0,1.3.2943,14.3788,14.3788,0,0,1,1.64.4047,2.396,2.396,0,0,1,1.056.6891A1.9421,1.9421,0,0,1,234,16.4763a2.1637,2.1637,0,0,1-.9331,1.8426A4.3231,4.3231,0,0,1,230.476,19a6.3379,6.3379,0,0,1-1.989-.3112" transform="translate(-0.1029 -1)" style="fill:#9aa8ba;fill-rule:evenodd"></path><path id="f2ee87bb-1ea2-4843-b679-737906f8e3f9" data-name="Fill-14" d="M244,10l-4.647,9.7481a4.1994,4.1994,0,0,1-1.3075,1.7383A3.0648,3.0648,0,0,1,236.2609,22a3.8741,3.8741,0,0,1-1.2542-.2A2.7333,2.7333,0,0,1,234,21.2047l.5827-.8765a2.394,2.394,0,0,0,1.6959.6613,1.7832,1.7832,0,0,0,1.0861-.3307,3,3,0,0,0,.84-1.1259l.4072-.8432L234.4584,10h1.3075l3.4993,7.3974L242.7625,10Z" transform="translate(-0.1029 -1)" style="fill:#9aa8ba;fill-rule:evenodd"></path><path id="fe09603a-f7d8-4060-b423-08d7da7eb154" data-name="Fill-15" d="M247.2054,18.4283a4.1485,4.1485,0,0,1-1.6186-1.6067A4.6468,4.6468,0,0,1,245,14.492a4.598,4.598,0,0,1,.5868-2.3215,4.1521,4.1521,0,0,1,1.6186-1.5978A4.7339,4.7339,0,0,1,249.5447,10a4.5173,4.5173,0,0,1,2.0379.4464A3.3888,3.3888,0,0,1,253,11.75l-.8891.6055a2.79,2.79,0,0,0-1.1072-.9843,3.285,3.285,0,0,0-1.459-.3281,3.4463,3.4463,0,0,0-1.7188.43,3.002,3.002,0,0,0-1.19,1.2189,4.0146,4.0146,0,0,0,0,3.6082,3.0124,3.0124,0,0,0,1.19,1.211,3.4463,3.4463,0,0,0,1.7188.43,3.35,3.35,0,0,0,1.459-.3191,2.7263,2.7263,0,0,0,1.1072-.9764L253,17.25a3.3728,3.3728,0,0,1-1.4263,1.3045,4.5264,4.5264,0,0,1-2.029.4454,4.7441,4.7441,0,0,1-2.3393-.5717" transform="translate(-0.1029 -1)" style="fill:#9aa8ba;fill-rule:evenodd"></path><path id="f6049d3c-fa0e-4de9-be69-9ab9ea91871a" data-name="Fill-16" d="M262.0337,10.722A4.08,4.08,0,0,1,263,13.6567V19h-1.1734V13.7789A3.169,3.169,0,0,0,261.15,11.59a2.4681,2.4681,0,0,0-1.9346-.7539,2.8754,2.8754,0,0,0-2.2227.8854,3.4559,3.4559,0,0,0-.8188,2.4428V19H255V6h1.1734v5.3961a3.2562,3.2562,0,0,1,1.322-1.2436,4.1385,4.1385,0,0,1,1.9345-.4381,3.4429,3.4429,0,0,1,2.6038,1.0076" transform="translate(-0.1029 -1)" style="fill:#9aa8ba;fill-rule:evenodd"></path><path id="bd455d28-872c-4cac-a687-e898152d4834" data-name="Fill-17" d="M271.1989,17.5106a2.9828,2.9828,0,0,0,1.1694-1.22,4.0613,4.0613,0,0,0,0-3.5993,2.9864,2.9864,0,0,0-1.1694-1.2189,3.5414,3.5414,0,0,0-3.3809,0,3.0451,3.0451,0,0,0-1.1783,1.2189,3.9843,3.9843,0,0,0,0,3.5993,3.0414,3.0414,0,0,0,1.1783,1.22,3.5414,3.5414,0,0,0,3.3809,0m-3.9964.9088a4.2473,4.2473,0,0,1-1.6148-1.6068A4.5844,4.5844,0,0,1,265,14.492a4.5828,4.5828,0,0,1,.5877-2.3215,4.1784,4.1784,0,0,1,1.6148-1.5988,4.9323,4.9323,0,0,1,4.61,0,4.106,4.106,0,0,1,1.6069,1.5988A4.63,4.63,0,0,1,274,14.492a4.6314,4.6314,0,0,1-.5807,2.3206,4.1728,4.1728,0,0,1-1.6069,1.6068,4.8656,4.8656,0,0,1-4.61,0" transform="translate(-0.1029 -1)" style="fill:#9aa8ba;fill-rule:evenodd"></path><polygon id="f7ddda2d-eee0-4d2a-b139-3a0cb608e0a6" data-name="Fill-18" points="276.897 18 277.897 18 277.897 5 276.897 5 276.897 18" style="fill:#9aa8ba;fill-rule:evenodd"></polygon><path id="bf4d4f21-d9d8-4755-a8bc-d8e4eb97c879" data-name="Fill-19" d="M287.1989,17.5106a2.9828,2.9828,0,0,0,1.1694-1.22,4.0613,4.0613,0,0,0,0-3.5993,2.9864,2.9864,0,0,0-1.1694-1.2189,3.5414,3.5414,0,0,0-3.3809,0,3.0451,3.0451,0,0,0-1.1783,1.2189,3.9843,3.9843,0,0,0,0,3.5993,3.0414,3.0414,0,0,0,1.1783,1.22,3.5414,3.5414,0,0,0,3.3809,0m-3.9964.9088a4.2473,4.2473,0,0,1-1.6148-1.6068A4.5844,4.5844,0,0,1,281,14.492a4.5828,4.5828,0,0,1,.5877-2.3215,4.1784,4.1784,0,0,1,1.6148-1.5988,4.9323,4.9323,0,0,1,4.61,0,4.106,4.106,0,0,1,1.6069,1.5988A4.63,4.63,0,0,1,290,14.492a4.6314,4.6314,0,0,1-.5807,2.3206,4.1728,4.1728,0,0,1-1.6069,1.6068,4.8656,4.8656,0,0,1-4.61,0" transform="translate(-0.1029 -1)" style="fill:#9aa8ba;fill-rule:evenodd"></path><path id="aec37c58-ffde-4940-ac4b-7a8ec4521269" data-name="Fill-20" d="M297.2328,16.9544a2.929,2.929,0,0,0,1.192-1.1276A3.19,3.19,0,0,0,298.85,14.18a3.1415,3.1415,0,0,0-.4256-1.6365,2.98,2.98,0,0,0-1.1831-1.1208,3.8906,3.8906,0,0,0-3.4341-.0068,2.8905,2.8905,0,0,0-1.1831,1.1189,3.4033,3.4033,0,0,0,0,3.2923,2.9491,2.9491,0,0,0,1.1831,1.1276,3.5889,3.5889,0,0,0,1.7092.4028,3.6337,3.6337,0,0,0,1.716-.4028ZM300,10.0652V17.67a4.3792,4.3792,0,0,1-1.0915,3.2681A4.5556,4.5556,0,0,1,295.6162,22a7.4568,7.4568,0,0,1-2.3081-.3551,4.7556,4.7556,0,0,1-1.7751-.98l.6-.8883a4.5336,4.5336,0,0,0,1.5427.8727,5.8165,5.8165,0,0,0,1.9072.3123,3.3957,3.3957,0,0,0,2.45-.7647,3.1957,3.1957,0,0,0,.7832-2.3788V16.7151a3.5561,3.5561,0,0,1-1.44,1.2512,4.5017,4.5017,0,0,1-1.9752.4281,4.71,4.71,0,0,1-2.2431-.5351,3.9831,3.9831,0,0,1-1.5821-1.4974A4.17,4.17,0,0,1,291,14.18a4.1151,4.1151,0,0,1,.5753-2.1716,3.9566,3.9566,0,0,1,1.5742-1.4817A4.7532,4.7532,0,0,1,295.4005,10a4.4914,4.4914,0,0,1,2.0165.4446,3.612,3.612,0,0,1,1.4491,1.2833V10.0652Z" transform="translate(-0.1029 -1)" style="fill:#9aa8ba;fill-rule:evenodd"></path><path id="acb6d7b8-3a82-4100-bf6a-10633cf1f211" data-name="Fill-21" d="M303.308,19h1.3647V9.7841H303.308Zm-.0194-11.4932A.8244.8244,0,0,1,303,6.8761a.8065.8065,0,0,1,.2886-.6131A1.0182,1.0182,0,0,1,304,6a1.04,1.04,0,0,1,.7114.2537A.7838.7838,0,0,1,305,6.8585a.8434.8434,0,0,1-.2886.6483,1.0933,1.0933,0,0,1-1.4228,0Z" transform="translate(-0.1029 -1)" style="fill:#9aa8ba;fill-rule:evenodd"></path><path id="f071d2ea-8e8c-4163-b37f-721b935b7847" data-name="Fill-22" d="M308.487,18.6888A4.2425,4.2425,0,0,1,307,17.9072l.52-.9427a4.3022,4.3022,0,0,0,1.3478.715,5.1929,5.1929,0,0,0,1.6895.2774,3.136,3.136,0,0,0,1.73-.3778,1.2166,1.2166,0,0,0,.56-1.068.98.98,0,0,0-.3082-.7667,2.0494,2.0494,0,0,0-.7794-.4206,11.2364,11.2364,0,0,0-1.2509-.2774,14.117,14.117,0,0,1-1.6732-.4117,2.4616,2.4616,0,0,1-1.08-.7149,2.0369,2.0369,0,0,1-.4464-1.3961,2.2125,2.2125,0,0,1,.8928-1.8167A3.906,3.906,0,0,1,310.6872,10a6.26,6.26,0,0,1,1.6569.2267,4.5092,4.5092,0,0,1,1.3641.5976l-.504.9586a4.2037,4.2037,0,0,0-2.517-.7567,2.845,2.845,0,0,0-1.6646.4027,1.2513,1.2513,0,0,0-.56,1.061,1.0645,1.0645,0,0,0,.3158.8074,1.9333,1.9333,0,0,0,.7881.4455,12.1293,12.1293,0,0,0,1.3.2943,14.3788,14.3788,0,0,1,1.64.4047,2.396,2.396,0,0,1,1.056.6891A1.9421,1.9421,0,0,1,314,16.4763a2.1637,2.1637,0,0,1-.9331,1.8426A4.3231,4.3231,0,0,1,310.476,19a6.3379,6.3379,0,0,1-1.989-.3112" transform="translate(-0.1029 -1)" style="fill:#9aa8ba;fill-rule:evenodd"></path><path id="e5f3b635-b2a1-4297-b208-082012c6510c" data-name="Fill-23" d="M321,18.37a2.2556,2.2556,0,0,1-.8269.468,3.2853,3.2853,0,0,1-1.0285.162,2.5522,2.5522,0,0,1-1.9058-.6813,2.6318,2.6318,0,0,1-.6679-1.9243V10.98H315V9.9585h1.5709V8h1.1865V9.9585h2.6745V10.98h-2.6745v5.347a1.7162,1.7162,0,0,0,.3923,1.2167,1.4739,1.4739,0,0,0,1.1292.4177,2.1753,2.1753,0,0,0,.71-.1188,1.786,1.786,0,0,0,.5928-.3411Z" transform="translate(-0.1029 -1)" style="fill:#9aa8ba;fill-rule:evenodd"></path><path id="f0cd459f-9c5b-466c-86cf-a35ff68f88bf" data-name="Fill-1" d="M6.7766,16.73a6.146,6.146,0,0,0,4.504-1.5451A5.7346,5.7346,0,0,0,12.846,10.91,6.0954,6.0954,0,0,0,12.16,8a4.8771,4.8771,0,0,0-2.0049-2.0086,6.3779,6.3779,0,0,0-3.1034-.7195H4.2774V16.73ZM.1029,2H6.7766a12.9126,12.9126,0,0,1,5.4652,1.0815,8.2071,8.2071,0,0,1,3.5978,3.09A8.7181,8.7181,0,0,1,17.1029,10.91q0,4.4807-2.7867,6.7861Q11.527,20,6.5569,20H.1029Z" transform="translate(-0.1029 -1)" style="fill:#9aa8ba;fill-rule:evenodd"></path><path id="b087682b-4d4c-4bb6-8df9-6395cc5eb39c" data-name="Fill-3" d="M19.1029,7.0807h3.8087V8.9379a4.72,4.72,0,0,1,2.113-1.4392A8.8783,8.8783,0,0,1,28.1029,7v3.0952a8.2536,8.2536,0,0,0-3.1688.5653,3.3665,3.3665,0,0,0-1.8921,1.7241V20H19.1029Z" transform="translate(-0.1029 -1)" style="fill:#9aa8ba;fill-rule:evenodd"></path><path id="b447efd6-6896-44e2-95d8-239459b84872" data-name="Fill-5" d="M30.4312,19.5789A1.4091,1.4091,0,0,1,30,18.5263a1.4779,1.4779,0,0,1,.4435-1.0789A1.4257,1.4257,0,0,1,31.487,17a1.456,1.456,0,0,1,1.07.4474A1.4779,1.4779,0,0,1,33,18.5263a1.3861,1.3861,0,0,1-.4435,1.0526A1.4937,1.4937,0,0,1,31.487,20a1.4494,1.4494,0,0,1-1.0558-.4211" transform="translate(-0.1029 -1)" style="fill:#9aa8ba;fill-rule:evenodd"></path><path id="bfe0b9be-6a3c-4f8a-b548-3791dd7a5ba3" data-name="Fill-18" d="M47.4543,10.8841q3.4864,0,3.4864-2.8084a2.4283,2.4283,0,0,0-.9332-2.1888A4.5849,4.5849,0,0,0,47.4543,5.27H44.211v5.6137ZM40.1029,2h7.946A7.7347,7.7347,0,0,1,53.184,3.6087a5.5126,5.5126,0,0,1,1.9189,4.467,5.5044,5.5044,0,0,1-1.9046,4.5065,7.8487,7.8487,0,0,1-5.1494,1.5708H44.211V20H40.1029Z" transform="translate(-0.1029 -1)" style="fill:#9aa8ba;fill-rule:evenodd"></path><path id="ae609123-040b-4706-bf0b-12011e6592f8" data-name="Fill-20" d="M63.903,17.0953a2.9211,2.9211,0,0,0,1.21-.9943V14.8774a5.1315,5.1315,0,0,0-2.8832-.8683,2.6809,2.6809,0,0,0-1.6611.4469,1.5531,1.5531,0,0,0-.5785,1.3121,1.4759,1.4759,0,0,0,.5663,1.2492,2.6107,2.6107,0,0,0,1.6218.4334,4.08,4.08,0,0,0,1.7248-.3554m-6.475,1.771A3.7413,3.7413,0,0,1,56,15.7681a3.9,3.9,0,0,1,1.3644-3.1731A5.8787,5.8787,0,0,1,61.2257,11.46a9.4558,9.4558,0,0,1,2.1109.2309,7.3331,7.3331,0,0,1,1.7763.6359v-.306a1.8638,1.8638,0,0,0-.8238-1.6825,4.7248,4.7248,0,0,0-2.5228-.5339,10.2016,10.2016,0,0,0-4.17.84V7.8413a10.0609,10.0609,0,0,1,2.1367-.6A14.4049,14.4049,0,0,1,62.3584,7a7.717,7.717,0,0,1,4.9941,1.3631A4.6768,4.6768,0,0,1,69,12.1751v7.444H65.3446V18.4974A5.8481,5.8481,0,0,1,61.1228,20a5.76,5.76,0,0,1-3.6948-1.1337" transform="translate(-0.1029 -1)" style="fill:#9aa8ba;fill-rule:evenodd"></path><path id="ec39dbd4-8f04-4d02-ba30-706208b026ec" data-name="Fill-22" d="M72.1029,7.0807h3.8087V8.9379a4.72,4.72,0,0,1,2.113-1.4392A8.8783,8.8783,0,0,1,81.1029,7v3.0952a8.2536,8.2536,0,0,0-3.1688.5653,3.3665,3.3665,0,0,0-1.8921,1.7241V20H72.1029Z" transform="translate(-0.1029 -1)" style="fill:#9aa8ba;fill-rule:evenodd"></path><polygon id="a66b33bf-d925-4063-9cab-2b41238d9572" data-name="Fill-24" points="83 0 87.019 0 87.019 11.878 91.677 6.659 96.335 6.659 90.932 12.677 97 19 92.342 19 87.019 13.448 87.019 19 83 19 83 0" style="fill:#9aa8ba;fill-rule:evenodd"></polygon><path id="b8252de5-8437-405e-a51f-a1eb52353330" data-name="Fill-27" d="M109.3955,12.3784a2.5,2.5,0,0,0-.9333-1.9,3.7265,3.7265,0,0,0-2.3593-.6748,3.6287,3.6287,0,0,0-2.3333.6883,2.5143,2.5143,0,0,0-.9334,1.8862Zm-8.2444,5.9258a5.8248,5.8248,0,0,1-2.0482-4.7532,6.3352,6.3352,0,0,1,1.8285-4.7922A7.2326,7.2326,0,0,1,106.1548,7a8.0773,8.0773,0,0,1,3.7851.8157,5.6023,5.6023,0,0,1,2.3593,2.2566,6.5541,6.5541,0,0,1,.8037,3.2493v1.5549H102.8362q.4141,2.3458,4.4593,2.3451a15.4716,15.4716,0,0,0,2.463-.204,11.0646,11.0646,0,0,0,2.2037-.5607v2.7019a10.3705,10.3705,0,0,1-2.3334.6118A17.9308,17.9308,0,0,1,106.777,20a8.5628,8.5628,0,0,1-5.6259-1.6958Z" transform="translate(-0.1029 -1)" style="fill:#9aa8ba;fill-rule:evenodd"></path><path id="ff36e320-11f6-43d7-b384-c430cdef867e" data-name="Fill-29" d="M116.1029,7.0807h3.8087V8.9379a4.72,4.72,0,0,1,2.113-1.4392A8.8783,8.8783,0,0,1,125.1029,7v3.0952a8.2536,8.2536,0,0,0-3.1688.5653,3.3665,3.3665,0,0,0-1.8921,1.7241V20h-3.9391Z" transform="translate(-0.1029 -1)" style="fill:#9aa8ba;fill-rule:evenodd"></path></g></g></g></svg>